<?xml version="1.0" encoding="utf-8"?>
<!-- Generator: Adobe Illustrator 16.0.0, SVG Export Plug-In . SVG Version: 6.00 Build 0)  -->
<!DOCTYPE svg PUBLIC "-//W3C//DTD SVG 1.1//EN" "http://www.w3.org/Graphics/SVG/1.1/DTD/svg11.dtd">
<svg version="1.1" id="Layer_1" xmlns="http://www.w3.org/2000/svg" xmlns:xlink="http://www.w3.org/1999/xlink" x="0px" y="0px"
	 width="32px" height="24px" viewBox="0 0 32 24" enable-background="new 0 0 32 24" xml:space="preserve">
<path fill="#2D317B" d="M0,0h32v24H0V0z"/>
<polygon id="Star7" fill="#FFFFFF" points="8,15.332 8.63,17.218 10.552,16.516 9.416,18.165 11.185,19.176 9.135,19.349 
	9.416,21.311 8,19.874 6.582,21.311 6.865,19.349 4.814,19.176 6.583,18.165 5.446,16.516 7.369,17.218 "/>
<polygon id="Star7_1_" fill="#FFFFFF" points="24.143,16.535 24.392,17.281 25.152,17.004 24.7,17.656 25.401,18.056 24.591,18.123 
	24.702,18.899 24.143,18.332 23.583,18.899 23.693,18.123 22.883,18.056 23.583,17.656 23.132,17.004 23.892,17.281 "/>
<polygon id="Star7_2_" fill="#FFFFFF" points="19.622,9.645 19.871,10.391 20.631,10.113 20.18,10.766 20.881,11.165 20.07,11.233 
	20.182,12.009 19.622,11.441 19.061,12.009 19.172,11.233 18.362,11.165 19.063,10.766 18.61,10.113 19.372,10.391 "/>
<polygon id="Star7_3_" fill="#FFFFFF" points="24.143,4.931 24.392,5.676 25.152,5.398 24.7,6.051 25.401,6.451 24.591,6.519 
	24.702,7.294 24.143,6.727 23.583,7.294 23.693,6.519 22.883,6.451 23.583,6.051 23.132,5.398 23.892,5.676 "/>
<polygon id="Star7_4_" fill="#FFFFFF" points="28.16,8.484 28.41,9.23 29.169,8.953 28.722,9.605 29.42,10.004 28.609,10.073 
	28.723,10.848 28.16,10.281 27.601,10.848 27.71,10.073 26.9,10.004 27.601,9.605 27.149,8.953 27.913,9.23 "/>
<polygon id="Star5" fill="#FFFFFF" points="25.951,11.977 26.146,12.441 26.667,12.479 26.27,12.802 26.394,13.288 25.951,13.024 
	25.507,13.288 25.632,12.802 25.233,12.479 25.754,12.441 "/>
<path id="White_Cross" fill="#FFFFFF" d="M6.666,0h2.667v4H16V8H9.334v4H6.667V8H0V4h6.666V0z"/>
<path id="White_Diagonal" fill="#FFFFFF" d="M0,0h1.79L16,10.658V12h-1.79L0,1.342V0z"/>
<path id="White_Diagonal_1_" fill="#FFFFFF" d="M16,0h-1.79L0,10.658V12h1.79L16,1.342V0z"/>
<path id="Red_Cross" fill="#EC2727" d="M7.2,0H8.8v4.8H16v2.4H8.8V12H7.2V7.2H0V4.8h7.2V0z"/>
<path id="Red_Diagonals" fill="#EC2727" d="M0,0l5.334,4H4.141L0,0.894V0z M16,0h-1.192L9.474,4h1.193L16,0z"/>
<path id="Red_Diagonals_1_" fill="#EC2727" d="M16,12l-5.334-4h1.193L16,11.106V12z M0,12h1.192l5.334-4H5.334L0,12z"/>
</svg>
