<?xml version="1.0" encoding="utf-8"?>
<!-- Generator: Adobe Illustrator 16.0.0, SVG Export Plug-In . SVG Version: 6.00 Build 0)  -->
<!DOCTYPE svg PUBLIC "-//W3C//DTD SVG 1.1//EN" "http://www.w3.org/Graphics/SVG/1.1/DTD/svg11.dtd">
<svg version="1.1" id="Layer_1" xmlns="http://www.w3.org/2000/svg" xmlns:xlink="http://www.w3.org/1999/xlink" x="0px" y="0px"
	 width="32px" height="24px" viewBox="0 0 32 24" enable-background="new 0 0 32 24" xml:space="preserve">
<g>
	<rect fill="#FFFFFF" width="32" height="24"/>
	<polyline fill="#D22027" points="32,9.6 17.601,9.6 17.601,0 14.4,0 14.4,9.6 0,9.6 0,14.4 14.4,14.4 14.4,24 17.601,24 
		17.601,14.4 32,14.4 	"/>
	<path fill="#D22027" d="M21.333,16h2.386L32,22.211V24 M10.667,8H8.281L0,1.789V0L10.667,8z M10.667,16h2.385L2.385,24H0L10.667,16
		z M21.333,8h-2.385l10.667-8H32L21.333,8z"/>
	<path fill="#18325B" d="M0,16v5.316L7.089,16 M32,16v5.316L24.911,16H32z M0,8V2.683L7.089,8H0z M32,8V2.683L24.911,8H32z
		 M13.333,24v-7.316L3.578,24H13.333z M18.667,24v-7.316L28.423,24H18.667z M13.333,0v7.317L3.578,0H13.333z M18.667,0v7.317
		L28.423,0H18.667z"/>
	<g>
	</g>
	<g>
	</g>
	<g>
	</g>
	<g>
	</g>
	<g>
	</g>
	<g>
	</g>
</g>
</svg>
