<?xml version="1.0" encoding="utf-8"?>
<!-- Generator: Adobe Illustrator 16.0.0, SVG Export Plug-In . SVG Version: 6.00 Build 0)  -->
<!DOCTYPE svg PUBLIC "-//W3C//DTD SVG 1.1//EN" "http://www.w3.org/Graphics/SVG/1.1/DTD/svg11.dtd">
<svg version="1.1" id="Layer_1" xmlns="http://www.w3.org/2000/svg" xmlns:xlink="http://www.w3.org/1999/xlink" x="0px" y="0px"
	 width="32px" height="24px" viewBox="0 0 32 24" enable-background="new 0 0 32 24" xml:space="preserve">
<rect x="-0.129" y="-0.049" fill="#FFFFFF" width="32.135" height="24.129"/>
<path fill="#0C7D5B" d="M3.789,24.074c-1.298,0-2.596,0-3.893,0c-0.038-0.078-0.02-0.162-0.02-0.244
	c-0.001-0.85-0.001-1.701-0.001-2.553c-0.009-0.168,0.092-0.254,0.2-0.336c0.606-0.455,1.213-0.91,1.819-1.365
	c3.266-2.451,6.53-4.906,9.795-7.358c0.256-0.192,0.256-0.193,0.001-0.384C7.848,8.946,4.005,6.059,0.161,3.172
	C0.042,3.083-0.105,3.016-0.125,2.82c0-0.882,0.005-1.764-0.004-2.645C-0.13-0.005-0.084-0.05,0.073-0.049
	c1.17,0.007,2.34,0.006,3.511,0.001c0.203,0,0.376,0.064,0.543,0.189c1.99,1.497,3.975,3,5.973,4.483
	c2.093,1.554,4.172,3.128,6.258,4.693c0.18,0.136,0.361,0.198,0.578,0.198c4.891-0.005,9.779-0.004,14.668-0.002
	c0.137,0,0.285-0.045,0.397,0.092c0,1.613,0,3.225,0,4.836c-0.058,0.074-0.134,0.094-0.219,0.094c-0.093,0-0.187,0-0.28,0
	c-4.848,0-9.693,0.002-14.542-0.002c-0.229,0-0.424,0.059-0.616,0.205c-1.902,1.439-3.806,2.877-5.719,4.297
	c-2.158,1.604-4.305,3.229-6.457,4.842C4.049,23.971,3.914,24.008,3.789,24.074z"/>
<path fill="#E1402A" d="M32.002-0.023c0,2.683,0,5.365,0,8.048c-0.052,0.066-0.118,0.093-0.195,0.093
	c-0.068,0-0.136,0.002-0.201,0.002c-4.735,0-9.471-0.001-14.205,0.004c-0.258,0-0.477-0.07-0.692-0.232
	c-3.36-2.534-6.727-5.056-10.09-7.585C6.534,0.244,6.442,0.193,6.385,0.096C6.336,0.015,6.337-0.046,6.447-0.045
	c0.047,0.001,0.093,0,0.141,0c8.399,0,16.799,0,25.198,0.001C31.857-0.044,31.934-0.066,32.002-0.023z"/>
<path fill="#2B3680" d="M32.002,16.027c0,2.621-0.001,5.244,0.004,7.867c0.001,0.153-0.025,0.186-0.164,0.186
	c-8.494-0.006-16.99-0.006-25.485-0.006c-0.008-0.182,0.134-0.229,0.233-0.305c0.882-0.666,1.766-1.328,2.65-1.992
	c2.507-1.883,5.013-3.766,7.519-5.65c0.175-0.131,0.351-0.197,0.562-0.197c4.787,0.004,9.574,0.004,14.363,0.004
	C31.796,15.934,31.915,15.914,32.002,16.027z"/>
<path fill="#F9B418" d="M-0.098,21.166c0-0.643,0-1.287,0-1.932c0.046-0.137,0.151-0.205,0.251-0.279
	c3.016-2.264,6.032-4.527,9.045-6.795c0.055-0.041,0.119-0.07,0.16-0.133c-0.042-0.064-0.105-0.093-0.16-0.134
	C6.185,9.625,3.169,7.362,0.153,5.099c-0.1-0.075-0.205-0.144-0.251-0.281c0-0.645,0-1.289,0-1.933
	c1.78,1.334,3.56,2.667,5.339,4.001c2.213,1.66,4.425,3.321,6.637,4.982c0.062,0.046,0.121,0.093,0.179,0.139
	c-0.014,0.079-0.07,0.096-0.111,0.126c-3.991,2.998-7.983,5.994-11.974,8.988C-0.051,21.139-0.074,21.152-0.098,21.166z"/>
<path fill="#020202" d="M-0.098,4.818c1.473,1.103,2.948,2.205,4.421,3.31c1.663,1.246,3.324,2.494,4.984,3.742
	c0.061,0.045,0.12,0.093,0.178,0.138c-0.009,0.071-0.06,0.086-0.096,0.113c-3.139,2.357-6.279,4.713-9.419,7.07
	c-0.022,0.017-0.046,0.029-0.069,0.043c-0.002-0.061-0.006-0.118-0.006-0.182c0-4.684,0-9.37,0-14.055
	C-0.104,4.938-0.1,4.878-0.098,4.818z"/>
</svg>
