<?xml version="1.0" encoding="utf-8"?>
<!-- Generator: Adobe Illustrator 16.0.0, SVG Export Plug-In . SVG Version: 6.00 Build 0)  -->
<!DOCTYPE svg PUBLIC "-//W3C//DTD SVG 1.1//EN" "http://www.w3.org/Graphics/SVG/1.1/DTD/svg11.dtd">
<svg version="1.1" id="Layer_1" xmlns="http://www.w3.org/2000/svg" xmlns:xlink="http://www.w3.org/1999/xlink" x="0px" y="0px"
	 width="32px" height="24px" viewBox="0 0 32 24" enable-background="new 0 0 32 24" xml:space="preserve">
<rect x="0" fill="#EB292A" width="32" height="24"/>
<rect x="0" y="1.846" fill="#FFFFFF" width="32" height="1.846"/>
<rect x="0" y="5.538" fill="#FFFFFF" width="32" height="1.847"/>
<rect x="0" y="9.23" fill="#FFFFFF" width="32" height="1.846"/>
<rect x="0" y="12.922" fill="#FFFFFF" width="32" height="1.847"/>
<rect x="0" y="16.614" fill="#FFFFFF" width="32" height="1.847"/>
<rect x="0" y="20.307" fill="#FFFFFF" width="32" height="1.847"/>
<rect x="0" fill="#223165" width="14.625" height="11.438"/>
<polygon id="star5" fill="#FFFFFF" points="1.198,0.493 1.543,1.677 0.64,0.945 1.756,0.945 0.853,1.677 "/>
<polygon id="star5_1_" fill="#FFFFFF" points="3.594,0.493 3.938,1.677 3.036,0.945 4.152,0.945 3.249,1.677 "/>
<polygon id="star5_2_" fill="#FFFFFF" points="5.99,0.493 6.334,1.677 5.432,0.945 6.547,0.945 5.644,1.677 "/>
<polygon id="star5_3_" fill="#FFFFFF" points="8.385,0.493 8.73,1.677 7.826,0.945 8.943,0.945 8.04,1.677 "/>
<polygon id="star5_4_" fill="#FFFFFF" points="10.781,0.493 11.125,1.677 10.222,0.945 11.339,0.945 10.436,1.677 "/>
<polygon id="star5_5_" fill="#FFFFFF" points="13.176,0.493 13.52,1.677 12.618,0.945 13.734,0.945 12.831,1.677 "/>
<polygon id="star5_6_" fill="#FFFFFF" points="2.396,1.64 2.741,2.823 1.838,2.091 2.955,2.091 2.051,2.823 "/>
<polygon id="star5_7_" fill="#FFFFFF" points="4.792,1.64 5.137,2.823 4.233,2.091 5.35,2.091 4.446,2.823 "/>
<polygon id="star5_8_" fill="#FFFFFF" points="7.187,1.64 7.532,2.823 6.629,2.091 7.746,2.091 6.842,2.823 "/>
<polygon id="star5_9_" fill="#FFFFFF" points="9.583,1.64 9.927,2.823 9.025,2.091 10.141,2.091 9.237,2.823 "/>
<polygon id="star5_10_" fill="#FFFFFF" points="11.979,1.64 12.324,2.823 11.42,2.091 12.537,2.091 11.633,2.823 "/>
<polygon id="star5_11_" fill="#FFFFFF" points="1.198,2.788 1.543,3.97 0.64,3.239 1.756,3.239 0.853,3.97 "/>
<polygon id="star5_12_" fill="#FFFFFF" points="3.594,2.788 3.938,3.97 3.036,3.239 4.152,3.239 3.249,3.97 "/>
<polygon id="star5_13_" fill="#FFFFFF" points="5.99,2.788 6.334,3.97 5.432,3.239 6.547,3.239 5.644,3.97 "/>
<polygon id="star5_14_" fill="#FFFFFF" points="8.385,2.788 8.73,3.97 7.826,3.239 8.943,3.239 8.04,3.97 "/>
<polygon id="star5_15_" fill="#FFFFFF" points="10.781,2.788 11.125,3.97 10.222,3.239 11.339,3.239 10.436,3.97 "/>
<polygon id="star5_16_" fill="#FFFFFF" points="13.176,2.788 13.52,3.97 12.618,3.239 13.734,3.239 12.831,3.97 "/>
<polygon id="star5_17_" fill="#FFFFFF" points="2.396,3.935 2.741,5.118 1.838,4.386 2.955,4.386 2.051,5.118 "/>
<polygon id="star5_18_" fill="#FFFFFF" points="4.792,3.935 5.137,5.118 4.233,4.386 5.35,4.386 4.446,5.118 "/>
<polygon id="star5_19_" fill="#FFFFFF" points="7.187,3.935 7.532,5.118 6.629,4.386 7.746,4.386 6.842,5.118 "/>
<polygon id="star5_20_" fill="#FFFFFF" points="9.583,3.935 9.927,5.118 9.025,4.386 10.141,4.386 9.237,5.118 "/>
<polygon id="star5_21_" fill="#FFFFFF" points="11.979,3.935 12.324,5.118 11.42,4.386 12.537,4.386 11.633,5.118 "/>
<polygon id="star5_22_" fill="#FFFFFF" points="1.198,5.082 1.543,6.264 0.64,5.534 1.756,5.534 0.853,6.264 "/>
<polygon id="star5_23_" fill="#FFFFFF" points="3.594,5.082 3.938,6.264 3.036,5.534 4.152,5.534 3.249,6.264 "/>
<polygon id="star5_24_" fill="#FFFFFF" points="5.99,5.082 6.334,6.264 5.432,5.534 6.547,5.534 5.644,6.264 "/>
<polygon id="star5_25_" fill="#FFFFFF" points="8.385,5.082 8.73,6.264 7.826,5.534 8.943,5.534 8.04,6.264 "/>
<polygon id="star5_26_" fill="#FFFFFF" points="10.781,5.082 11.125,6.264 10.222,5.534 11.339,5.534 10.436,6.264 "/>
<polygon id="star5_27_" fill="#FFFFFF" points="13.176,5.082 13.52,6.264 12.618,5.534 13.734,5.534 12.831,6.264 "/>
<polygon id="star5_28_" fill="#FFFFFF" points="2.396,6.229 2.741,7.412 1.838,6.68 2.955,6.68 2.051,7.412 "/>
<polygon id="star5_29_" fill="#FFFFFF" points="4.792,6.229 5.137,7.412 4.233,6.68 5.35,6.68 4.446,7.412 "/>
<polygon id="star5_30_" fill="#FFFFFF" points="7.187,6.229 7.532,7.412 6.629,6.68 7.746,6.68 6.842,7.412 "/>
<polygon id="star5_31_" fill="#FFFFFF" points="9.583,6.229 9.927,7.412 9.025,6.68 10.141,6.68 9.237,7.412 "/>
<polygon id="star5_32_" fill="#FFFFFF" points="11.979,6.229 12.324,7.412 11.42,6.68 12.537,6.68 11.633,7.412 "/>
<polygon id="star5_33_" fill="#FFFFFF" points="1.198,7.376 1.543,8.558 0.64,7.827 1.756,7.827 0.853,8.558 "/>
<polygon id="star5_34_" fill="#FFFFFF" points="3.594,7.376 3.938,8.558 3.036,7.827 4.152,7.827 3.249,8.558 "/>
<polygon id="star5_35_" fill="#FFFFFF" points="5.99,7.376 6.334,8.558 5.432,7.827 6.547,7.827 5.644,8.558 "/>
<polygon id="star5_36_" fill="#FFFFFF" points="8.385,7.376 8.73,8.558 7.826,7.827 8.943,7.827 8.04,8.558 "/>
<polygon id="star5_37_" fill="#FFFFFF" points="10.781,7.376 11.125,8.558 10.222,7.827 11.339,7.827 10.436,8.558 "/>
<polygon id="star5_38_" fill="#FFFFFF" points="13.176,7.376 13.52,8.558 12.618,7.827 13.734,7.827 12.831,8.558 "/>
<polygon id="star5_39_" fill="#FFFFFF" points="2.396,8.522 2.741,9.706 1.838,8.975 2.955,8.975 2.051,9.706 "/>
<polygon id="star5_40_" fill="#FFFFFF" points="4.792,8.522 5.137,9.706 4.233,8.975 5.35,8.975 4.446,9.706 "/>
<polygon id="star5_41_" fill="#FFFFFF" points="7.187,8.522 7.532,9.706 6.629,8.975 7.746,8.975 6.842,9.706 "/>
<polygon id="star5_42_" fill="#FFFFFF" points="9.583,8.522 9.927,9.706 9.025,8.975 10.141,8.975 9.237,9.706 "/>
<polygon id="star5_43_" fill="#FFFFFF" points="11.979,8.522 12.324,9.706 11.42,8.975 12.537,8.975 11.633,9.706 "/>
<polygon id="star5_44_" fill="#FFFFFF" points="1.198,9.67 1.543,10.853 0.64,10.122 1.756,10.122 0.853,10.853 "/>
<polygon id="star5_45_" fill="#FFFFFF" points="3.594,9.67 3.938,10.853 3.036,10.122 4.152,10.122 3.249,10.853 "/>
<polygon id="star5_46_" fill="#FFFFFF" points="5.99,9.67 6.334,10.853 5.432,10.122 6.547,10.122 5.644,10.853 "/>
<polygon id="star5_47_" fill="#FFFFFF" points="8.385,9.67 8.73,10.853 7.826,10.122 8.943,10.122 8.04,10.853 "/>
<polygon id="star5_48_" fill="#FFFFFF" points="10.781,9.67 11.125,10.853 10.222,10.122 11.339,10.122 10.436,10.853 "/>
<polygon id="star5_49_" fill="#FFFFFF" points="13.176,9.67 13.52,10.853 12.618,10.122 13.734,10.122 12.831,10.853 "/>
</svg>
