<?xml version="1.0" encoding="UTF-8"?>
<!DOCTYPE svg PUBLIC "-//W3C//DTD SVG 1.1//EN" "http://www.w3.org/Graphics/SVG/1.1/DTD/svg11.dtd">
<!-- Creator: CorelDRAW -->
<svg xmlns="http://www.w3.org/2000/svg" xml:space="preserve" width="210mm" height="297mm" style="shape-rendering:geometricPrecision; text-rendering:geometricPrecision; image-rendering:optimizeQuality; fill-rule:evenodd; clip-rule:evenodd"
viewBox="0 0 210 297"
 xmlns:xlink="http://www.w3.org/1999/xlink"
 version="1.1">
 <defs>
  <style type="text/css">
   <![CDATA[
    .fil0 {fill:#045662}
   ]]>
  </style>
 </defs>
 <g id="Layer_x0020_1">
  <metadata id="CorelCorpID_0Corel-Layer"/>
  <g id="_248639352">
   <path id="_248640216" class="fil0" d="M63.6458 82.0889c-30.9839,-33.4619 -36.2134,-3.0591 -59.0283,3.3325 -2.7515,0.769 -4.8022,0.957 -4.6143,2.2559 1.9995,13.1079 6.272,15.5859 11.04,15.7056 5.2808,0.1538 9.5703,0.0513 12.7319,1.5552 4.0332,1.9141 6.9556,4.3921 9.0918,7.2974l32.4023 -16.5259c-1.0253,-3.8283 -1.5892,-8.34 -1.6234,-13.6207l0 0 0 0zm-27.395 36.4697c6.9043,18.3887 -2.3071,45.7324 28.5571,55.7983 1.8628,15.6543 1.7773,31.3257 -0.4102,46.98l-3.7427 -0.3931c-6.7505,-0.7178 -6.6992,5.4175 -3.5034,9.3652l19.961 0.0001c1.4526,-18.7646 5.0757,-39.3066 3.5718,-57.2168 10.5103,2.8198 16.8506,2.0679 28.2666,-2.29 5.5371,-2.1021 28.4033,-15.7739 34.6069,-10.2197 3.4863,3.1445 -5.8276,15.6885 17.1753,37.9565l-0.4102 22.0288 -3.8965 0c-5.896,0 -5.5713,5.896 -3.4351,9.7412l11.3648 0c7.5537,0 5.9644,0.8032 6.0669,-7.1436l0.188 -17.1411 1.2134 -10.6299c-0.0171,-6.3232 -4.563,-13.0566 -0.2222,-28.1299 2.8711,-9.9634 2.6318,-17.9102 10.1343,-19.0039 6.9556,14.0308 13.6206,26.8823 19.4653,41.5967 0.3931,0.9912 0.9399,1.9312 1.4185,2.9053 6.665,15.3467 9.4507,3.811 5.7251,-5.2979l-2.4951 -6.084c-3.1958,-12.8687 -12.2021,-36.9995 -20.6958,-45.9546 -32.0264,-33.7866 -96.9336,-1.8286 -116.057,-31.0693l-32.8467 14.2017 0 0 0 0z"/>
  </g>
 </g>
</svg>
