<?xml version="1.0" encoding="UTF-8"?>
<!DOCTYPE svg PUBLIC "-//W3C//DTD SVG 1.1//EN" "http://www.w3.org/Graphics/SVG/1.1/DTD/svg11.dtd">
<!-- Creator: CorelDRAW -->
<svg xmlns="http://www.w3.org/2000/svg" xml:space="preserve" width="210mm" height="297mm" style="shape-rendering:geometricPrecision; text-rendering:geometricPrecision; image-rendering:optimizeQuality; fill-rule:evenodd; clip-rule:evenodd"
viewBox="0 0 210 297"
 xmlns:xlink="http://www.w3.org/1999/xlink"
 version="1.1">
 <defs>
  <style type="text/css">
   <![CDATA[
    .fil0 {fill:#045662}
   ]]>
  </style>
 </defs>
 <g id="Layer_x0020_1">
  <metadata id="CorelCorpID_0Corel-Layer"/>
  <g id="_249415904">
   <path id="_249416072" class="fil0" d="M30.9155 98.8455c2.8711,1.0425 7.1094,-1.2988 13.6206,-9.126 2.4609,0.9058 4.3921,2.9224 5.2295,7.2461 1.6064,8.2373 -0.9399,13.5181 -4.4775,20.7642 -3.8452,7.9126 -7.8784,15.415 -6.1523,25.7373 -7.0581,0.8716 -13.5522,0.6494 -19.4482,-0.7861 -3.3496,-0.2905 -6.1182,-0.0854 -8.1689,0.7178 -2.085,0.8032 -3.4351,2.2217 -3.9307,4.3579 -1.1963,7.998 -4.3237,13.0908 -7.5366,18.0469 -0.1709,4.0674 -0.0513,7.998 1.521,11.3135l0.9058 2.3242 0.4102 5.2124c0.5469,6.9727 3.0249,12.8003 8.6646,3.3496 0.5811,-3.606 0.0342,-7.2119 -1.6235,-10.8179l-2.5977 -1.1792c0.1538,-5.0757 0.6665,-9.9805 2.3242,-14.3042 1.2817,-4.2212 3.623,-7.2461 7.1606,-8.9722l3.623 -0.4102 -2.1191 5.4346c-0.4956,5.7422 -1.2305,10.9717 -3.23,13.7061 -1.1279,4.0332 -0.6152,6.5283 1.5039,7.5537 1.6406,0.6665 3.1445,3.6743 4.5288,9.5703 1.4697,3.3496 3.3154,5.1953 5.5371,5.5371 2.3242,-0.5811 2.7344,-5.1782 1.8115,-12.4927 -1.7773,-2.1704 -3.5547,-3.042 -5.3491,-3.23 0.3247,-3.8794 0.1709,-7.6563 -0.5127,-11.2964 0.3247,-4.5288 1.6577,-8.7671 5.7422,-12.2876 1.5723,4.2725 8.3569,6.1353 16.936,7.1606l5.6396 -5.8447c14.9536,14.1846 32.3511,22.3193 49.1846,16.1328 1.2305,0.8716 1.709,4.3066 2.1362,10.271 3.4351,4.939 6.6992,13.9966 9.9463,20.4736 2.3926,4.9902 1.897,9.1089 -0.4102,12.6978 -5.1953,2.2046 -10.1685,5.5713 -13.2446,9.1943 -5.0073,0.2222 -8.8184,0.4614 -11.9629,2.085 -2.1533,1.6919 -3.4521,3.811 -3.7256,6.4429l2.6147 1.0083 -2.9224 4.0332c1.0425,3.5034 4.4604,4.4434 11.1426,4.1699l3.8794 -6.6821 7.4512 -2.1191c2.7344,-5.4346 7.1094,-10.6982 16.4233,-15.415 6.2207,0.3418 9.519,-2.9907 9.1772,-10.8862 -3.1445,-7.1436 -4.2896,-13.9966 -1.4185,-20.2515 13.1934,-8.1177 21.3452,-20.542 20.354,-34.4702 21.0376,-5.5029 -10.9033,48.5181 49.4067,36.6406 3.4863,-0.6836 7.1094,-1.9482 10.9717,-3.3838 -7.793,-1.333 -30.2148,-6.8872 -34.1626,-16.3208 -10.1001,-14.3213 -20.6787,-24.7803 -31.9409,-29.7363 -7.6392,-9.707 -21.123,-13.4497 -37.7002,-14.0137 -4.9561,-0.4443 -9.2969,-1.7603 -12.6978,-4.4263 3.4351,-24.2847 -19.79,-36.2134 -2.8198,-28.728 -7.2289,-17.6026 -29.702,-23.3448 -13.8426,-21.5162 -8.1519,-7.4512 -18.4399,-11.5698 -33.0518,-8.9722 -3.1104,-4.5288 -10.5444,-14.2188 -8.2715,-2.6147l-3.7256 -3.3325 -0.2051 11.6895c-4.4263,3.3838 -6.853,14.646 -10.2881,21.9604 -2.9224,2.9053 -4.0503,6.3916 -3.1274,11.792 4.5801,5.896 11.792,4.4433 12.8174,-3.0078l0 0z"/>
  </g>
 </g>
</svg>
