<svg xmlns="http://www.w3.org/2000/svg" width="25" height="25" viewBox="0 0 25 25"><g fill="none" fill-rule="evenodd"><circle cx="12.5" cy="12.5" r="12.5" fill="rgb(59, 81, 96)"/><path fill="rgb(197,208,215)" d="M17.59 11.922c1.606.516 2.443 1.107 2.443 2.166 0 .373-.066.616-.2.73-.134.115-.402.173-.804.173h-5.425l-.823 8.016h-.536l-.784-8.015H6.038c-.402 0-.67-.064-.804-.193-.134-.13-.2-.365-.2-.71 0-1.058.77-1.65 2.377-2.165.09 0 .18-.03.27-.086.49-.172.802-.444.936-.816L9.82 5.95v-.216c0-.23-.222-.415-.668-.558l-.067-.043h-.067c-.536-.143-.804-.387-.804-.73 0-.402.09-.652.268-.753.18-.1.49-.15.938-.15h6.16c.447 0 .76.05.938.15.178.1.268.35.268.752 0 .344-.268.588-.804.73h-.067l-.067.044c-.446.143-.67.33-.67.558v.215l1.206 5.07c.134.372.446.644.937.816.09.057.18.086.27.086z"/></g></svg>